<?xml version="1.0" encoding="UTF-8"?>
<svg width="67px" height="62px" viewBox="0 0 67 62" version="1.1" xmlns="http://www.w3.org/2000/svg" xmlns:xlink="http://www.w3.org/1999/xlink">
    <!-- Generator: Sketch 51.3 (57544) - http://www.bohemiancoding.com/sketch -->
    <title>Monkey/Blind</title>
    <desc>Created with Sketch.</desc>
    <defs>
        <linearGradient x1="50%" y1="0%" x2="50%" y2="100%" id="linearGradient-1">
            <stop stop-color="#57BEFF" offset="0%"></stop>
            <stop stop-color="#2C8AFF" offset="100%"></stop>
        </linearGradient>
        <linearGradient x1="106.330564%" y1="0%" x2="29.6381811%" y2="142.66861%" id="linearGradient-2">
            <stop stop-color="#46B2FF" offset="0%"></stop>
            <stop stop-color="#227AFE" offset="100%"></stop>
        </linearGradient>
        <linearGradient x1="76.1010078%" y1="-4.36693699%" x2="29.6381811%" y2="142.66861%" id="linearGradient-3">
            <stop stop-color="#46B2FF" offset="0%"></stop>
            <stop stop-color="#227AFE" offset="100%"></stop>
        </linearGradient>
    </defs>
    <g id="1440" stroke="none" stroke-width="1" fill="none" fill-rule="evenodd">
        <g id="1440-(1)" transform="translate(-247.000000, -4093.000000)">
            <g id="Group-66" transform="translate(207.000000, 3864.000000)">
                <g id="Group-61" transform="translate(0.000000, 181.000000)">
                    <g id="Monkey/Blind" transform="translate(40.000000, 48.000000)">
                        <ellipse id="Oval-20" fill="#474D54" cx="59.4066667" cy="28.015528" rx="7.59333333" ry="7.55974564"></ellipse>
                        <path d="M29.8002019,3.89583524 C30.9833849,3.11012289 31.5749764,2.11962454 31.5749764,0.924340199 C31.5749764,-0.868586319 31.7912633,2.55998592 34.0752486,2.77236701 C36.3592338,2.98474811 40.0454338,1.32542087 39.6213671,1.76735411 C38.1555855,3.29489118 37.5849619,4.31848152 37.9094962,4.83812513 L29.8002019,3.89583524 Z" id="Path-20" fill="url(#linearGradient-1)"></path>
                        <ellipse id="Oval-21" fill="#FFFFFF" cx="59.4066667" cy="28.015528" rx="4.91333333" ry="4.89160012"></ellipse>
                        <ellipse id="Oval-20" fill="#474D54" cx="7.59333333" cy="28.015528" rx="7.59333333" ry="7.55974564"></ellipse>
                        <ellipse id="Oval-21" fill="#FFFFFF" cx="7.14666667" cy="28.015528" rx="4.91333333" ry="4.89160012"></ellipse>
                        <ellipse id="Oval-19" fill="#474D54" cx="33.7233333" cy="42.0232919" rx="19.43" ry="19.344055"></ellipse>
                        <ellipse id="Oval-18" fill="#474D54" cx="33.5" cy="30.2389825" rx="26.8" ry="26.6814552"></ellipse>
                        <ellipse id="Oval-17" fill="#FFFFFF" cx="33.5" cy="43.1350192" rx="16.9733333" ry="16.898255"></ellipse>
                        <ellipse id="Oval-16" fill="#FFFFFF" cx="23.8966667" cy="24.2356551" rx="13.1766667" ry="13.1183821"></ellipse>
                        <ellipse id="Oval-16" fill="#FFFFFF" cx="43.55" cy="24.2356551" rx="13.1766667" ry="13.1183821"></ellipse>
                        <path d="M37.8203534,39.9983097 L34.6677454,42.4272595" id="Path-15" stroke="#474D54" stroke-width="1.344" stroke-linecap="round"></path>
                        <path d="M32.4603534,39.9983097 L29.3077454,42.4272595" id="Path-15" stroke="#474D54" stroke-width="1.344" stroke-linecap="round" transform="translate(30.884049, 41.212785) scale(-1, 1) translate(-30.884049, -41.212785) "></path>
                        <path d="M38.6438573,53.7531622 C36.7237112,55.0753511 34.9439433,55.7364456 33.3045538,55.7364456 C31.6651643,55.7364456 30.0743943,55.0753511 28.5322439,53.7531622" id="Path-16" stroke="#474D54" stroke-width="1.344" stroke-linecap="round"></path>
                        <path d="M29.8237626,23.4124502 C30.9322755,22.3597949 32.2313662,21.8334673 33.7210347,21.8334673 C35.2107031,21.8334673 36.5219687,22.3597949 37.6548315,23.4124502" id="Path-17" stroke="#474D54" stroke-width="1.344"></path>
                        <path d="M14.6444307,22.390386 C13.5863559,21.8773524 12.7678809,21.5338174 12.1890057,21.3597808 C11.6101304,21.1857442 10.7916554,21.0371367 9.73358063,20.9139582" id="Path-18" stroke="#474D54" stroke-width="1.344"></path>
                        <path d="M52.4122441,22.4830289 C53.7514639,21.980213 54.666193,21.6477304 55.1564315,21.4855812 C55.1980912,21.471802 55.2414495,21.4582094 55.2865064,21.4448034 C55.6099461,21.3485689 56.2920511,21.2258517 57.3328213,21.0766516" id="Path-19" stroke="#474D54" stroke-width="1.344"></path>
                        <path d="M37.578712,21.4640153 C39.5192797,20.8723619 41.847247,20.5765352 44.5626141,20.5765352 C47.3308425,20.5765352 49.8623609,20.883992 52.1571695,21.4989056 L52.1571767,21.4988786 C52.744758,21.656326 53.1533333,22.1887966 53.1533333,22.7971069 L53.1533333,27.7932058 C53.1533333,31.1087648 50.4655417,33.7965565 47.1499826,33.7965565 L42.6300093,33.7965565 C39.3144525,33.7965565 36.6266627,31.1087666 36.6266627,27.7932098 C36.6266627,27.7932084 36.6266627,27.7932071 36.6266627,27.7932058 L36.6266705,22.7495867 C36.6266709,22.1582926 37.0131213,21.6364565 37.578712,21.4640153 Z" id="Rectangle-8" fill="url(#linearGradient-2)"></path>
                        <path d="M15.2453787,21.4640153 C17.1859463,20.8723619 19.5139137,20.5765352 22.2292808,20.5765352 C24.9975091,20.5765352 27.5290276,20.883992 29.8238362,21.4989056 L29.8238434,21.4988786 C30.4114247,21.656326 30.82,22.1887966 30.82,22.7971069 L30.82,27.7932058 C30.82,31.1087648 28.1322083,33.7965565 24.8166493,33.7965565 L20.296676,33.7965565 C16.9811192,33.7965565 14.2933293,31.1087666 14.2933293,27.7932098 C14.2933293,27.7932084 14.2933293,27.7932071 14.2933293,27.7932058 L14.2933371,22.7495867 C14.2933375,22.1582926 14.679788,21.6364565 15.2453787,21.4640153 Z" id="Rectangle-8" fill="url(#linearGradient-3)"></path>
                    </g>
                </g>
            </g>
        </g>
    </g>
</svg>