<?xml version="1.0" encoding="UTF-8"?>
<svg width="57px" height="57px" viewBox="0 0 57 57" version="1.1" xmlns="http://www.w3.org/2000/svg" xmlns:xlink="http://www.w3.org/1999/xlink">
    <!-- Generator: Sketch 51.3 (57544) - http://www.bohemiancoding.com/sketch -->
    <title>UI/Icon/Cloud-based</title>
    <desc>Created with Sketch.</desc>
    <defs>
        <linearGradient x1="45.8509555%" y1="-2.86756152%" x2="45.8509555%" y2="136.344535%" id="linearGradient-1">
            <stop stop-color="#46B2FF" offset="0%"></stop>
            <stop stop-color="#227AFE" offset="100%"></stop>
        </linearGradient>
        <linearGradient x1="50%" y1="-16.7217076%" x2="53.0076408%" y2="112.348023%" id="linearGradient-2">
            <stop stop-color="#007FDA" offset="0%"></stop>
            <stop stop-color="#004AB9" offset="100%"></stop>
        </linearGradient>
        <path d="M38.5352022,10.4468498 C39.7943917,10.5112095 40.9700434,10.8767725 41.9920679,11.4734496 C43.1219584,12.1331009 44.0640822,13.0752247 44.7237335,14.2051152 C45.3833847,15.3350056 45.7605634,16.6526627 45.7605634,18.0633803 C45.7605634,19.4740979 45.3833847,20.7917549 44.7237335,21.9216454 C44.0640822,23.0515358 43.1219584,23.9936597 41.9920679,24.653311 C40.8621775,25.3129622 39.5445204,25.6901408 38.1338028,25.6901408 L7.62676056,25.6901408 C6.21604295,25.6901408 4.89838591,25.3129622 3.76849546,24.653311 C2.638605,23.9936597 1.69648114,23.0515358 1.03682989,21.9216454 C0.377178637,20.7917549 1.69485857e-16,19.4740979 -3.27722383e-18,18.0633803 C-1.69485857e-16,16.6526627 0.377178637,15.3350056 1.03682989,14.2051152 C1.69648114,13.0752247 2.638605,12.1331009 3.76849546,11.4734496 C4.80751204,10.8668522 6.00530672,10.4991177 7.28823572,10.4438898 C7.90813851,4.57716002 13.0349136,0 19.2676056,0 C23.7272098,0 27.6206219,2.34335125 29.7020002,5.82574006 C30.6126817,5.18986696 31.7205319,4.81690141 32.915493,4.81690141 C36.0191777,4.81690141 38.5352113,7.332935 38.5352113,10.4366197 C38.5352113,10.4400305 38.5352082,10.4434405 38.5352022,10.4468498 Z" id="path-3"></path>
        <polygon id="path-4" points="24.084507 10.4366197 21.6760563 10.4366197 21.6760563 12.9968456 22.8802817 13.7937308 21.6760563 14.3039935 21.6760563 19.2676056 24.084507 19.2676056 24.084507 16.5527249 22.8802817 15.8694284 24.084507 15.2252779"></polygon>
        <filter x="-78.9%" y="-21.5%" width="257.8%" height="143.0%" filterUnits="objectBoundingBox" id="filter-5">
            <feGaussianBlur stdDeviation="1" in="SourceAlpha" result="shadowBlurInner1"></feGaussianBlur>
            <feOffset dx="0" dy="1" in="shadowBlurInner1" result="shadowOffsetInner1"></feOffset>
            <feComposite in="shadowOffsetInner1" in2="SourceAlpha" operator="arithmetic" k2="-1" k3="1" result="shadowInnerInner1"></feComposite>
            <feColorMatrix values="0 0 0 0 0.33155294   0 0 0 0 0.344250396   0 0 0 0 0.360012755  0 0 0 1 0" type="matrix" in="shadowInnerInner1"></feColorMatrix>
        </filter>
    </defs>
    <g id="1440" stroke="none" stroke-width="1" fill="none" fill-rule="evenodd">
        <g id="1440-(6)" transform="translate(-596.000000, -2569.000000)">
            <g id="Group-108" transform="translate(209.000000, 1826.000000)">
                <g id="Group-61" transform="translate(0.000000, 181.000000)">
                    <g id="Group-58" transform="translate(0.000000, 281.000000)">
                        <g id="Group-56" transform="translate(0.000000, 281.000000)">
                            <g id="Group-31" transform="translate(387.000000, 0.000000)">
                                <g id="UI/Icon/Cloud-based">
                                    <g id="Cloud-based">
                                        <g id="Group-19">
                                            <g id="Group-25">
                                                <circle id="Oval" fill="#F6F8FB" cx="28.5" cy="28.5" r="28.5"></circle>
                                                <circle id="Oval-40" fill="#E1E7EF" cx="28.9014085" cy="28.0985915" r="4.01408451"></circle>
                                                <g id="Group-97" transform="translate(5.619718, 12.845070)">
                                                    <g id="Combined-Shape">
                                                        <path stroke="url(#linearGradient-1)" stroke-width="2.4" d="M38.4739478,11.6452854 L37.3331689,11.586978 L37.3352041,10.4447118 C37.3352101,10.4406665 37.3352101,10.4406665 37.3352113,10.4366197 C37.3352113,7.9956767 35.356436,6.01690141 32.915493,6.01690141 C31.9975248,6.01690141 31.124524,6.29605449 30.3889915,6.80963178 L29.332825,7.54708815 L28.671959,6.44138219 C26.7507222,3.22692869 23.1956827,1.2 19.2676056,1.2 C13.6855054,1.2 9.04069704,5.27864526 8.48159236,10.5699848 L8.37293563,11.5983067 L7.33984586,11.6427795 C6.2783807,11.6884737 5.26733491,11.987937 4.37351599,12.5097653 C3.42213776,13.0651977 2.62857801,13.8587575 2.07314555,14.8101357 C1.50400926,15.7849867 1.2,16.8978005 1.2,18.0633803 C1.2,19.22896 1.50400926,20.3417739 2.07314555,21.3166249 C2.62857801,22.2680031 3.42213776,23.0615628 4.37351599,23.6169953 C5.34836696,24.1861316 6.4611808,24.4901408 7.62676056,24.4901408 L38.1338028,24.4901408 C39.2993826,24.4901408 40.4121964,24.1861316 41.3870474,23.6169953 C42.3384256,23.0615628 43.1319854,22.2680031 43.6874178,21.3166249 C44.2565541,20.3417739 44.5605634,19.22896 44.5605634,18.0633803 C44.5605634,16.8978005 44.2565541,15.7849867 43.6874178,14.8101357 C43.1319854,13.8587575 42.3384256,13.0651977 41.3870474,12.5097653 C40.5083119,11.996743 39.5160523,11.6985494 38.4739478,11.6452854 Z" stroke-linejoin="square"></path>
                                                        <use stroke="url(#linearGradient-2)" stroke-width="0.8" xlink:href="#path-3"></use>
                                                    </g>
                                                    <path d="M38.1338028,13.2450704 L35.7438632,13.2450704 L35.8305078,12.7728781 C35.8860558,12.4701543 35.9063059,12.1329994 35.8969121,11.740257 C35.8768522,10.9015828 35.7845274,10.1488168 35.6270453,9.59081432 C35.2814574,8.36630176 34.4045666,7.71221081 32.8264881,7.61338944 C31.5178593,7.53144137 30.2432933,8.26881442 29.3758725,9.50957649 L28.8725487,10.2295329 L28.6599346,9.37720237 C27.6890314,5.48503194 23.7972227,2.8084507 19.2676056,2.8084507 C14.139323,2.8084507 9.89316235,6.97066838 9.89316235,12.0422535 C9.89316235,12.2999474 9.9040674,12.556383 9.92574886,12.8111521 L9.96267633,13.2450704 L7.62676056,13.2450704 C6.75429629,13.2450704 5.91969059,13.4730761 5.18856847,13.8999189 C4.47498961,14.3165196 3.87989992,14.9116093 3.46329918,15.6251882 C3.03645637,16.3563103 2.8084507,17.190916 2.8084507,18.0633803 C2.8084507,18.9358446 3.03645637,19.7704503 3.46329918,20.5015724 C3.87989992,21.2151512 4.47498961,21.8102409 5.18856847,22.2268417 C5.91969059,22.6536845 6.75429629,22.8816901 7.62676056,22.8816901 L38.1338028,22.8816901 C39.0062671,22.8816901 39.8408728,22.6536845 40.5719949,22.2268417 C41.2855738,21.8102409 41.8806635,21.2151512 42.2972642,20.5015724 C42.724107,19.7704503 42.9521127,18.9358446 42.9521127,18.0633803 C42.9521127,17.190916 42.724107,16.3563103 42.2972642,15.6251882 C41.8806635,14.9116093 41.2855738,14.3165196 40.5719949,13.8999189 C39.8408728,13.4730761 39.0062671,13.2450704 38.1338028,13.2450704 Z" id="Combined-Shape" stroke="url(#linearGradient-2)" stroke-width="0.8"></path>
                                                    <g id="Path-31" stroke-linecap="round" stroke-linejoin="round">
                                                        <use fill="#474D54" fill-rule="evenodd" xlink:href="#path-4"></use>
                                                        <use fill="black" fill-opacity="1" filter="url(#filter-5)" xlink:href="#path-4"></use>
                                                        <use stroke="#393F47" stroke-width="0.8" xlink:href="#path-4"></use>
                                                    </g>
                                                </g>
                                            </g>
                                        </g>
                                    </g>
                                </g>
                            </g>
                        </g>
                    </g>
                </g>
            </g>
        </g>
    </g>
</svg>