<?xml version="1.0" encoding="UTF-8"?>
<svg width="123px" height="112px" viewBox="0 0 123 112" version="1.1" xmlns="http://www.w3.org/2000/svg" xmlns:xlink="http://www.w3.org/1999/xlink">
    <!-- Generator: Sketch 52.1 (67048) - http://www.bohemiancoding.com/sketch -->
    <title>man@2x</title>
    <desc>Created with Sketch.</desc>
    <g id="About-us" stroke="none" stroke-width="1" fill="none" fill-rule="evenodd">
        <g transform="translate(-460.000000, -3933.000000)" id="Group-17">
            <g transform="translate(0.000000, 3850.000000)">
                <g id="man" transform="translate(459.000000, 83.000000)">
                    <path d="M122,68 C120.254484,74.9820655 106,77 92,78 C71.5194956,79.4628932 56.5194956,87.1295598 47,101 C37.6666667,105 30,105.333333 24,102 C15.6295393,97.349744 16,93.2426916 16,84 C16,74 21.77823,70.3654862 19,59 C16.27823,47.8654862 2.40565598,45.040102 7,37 C11,30 34.3369984,21.8275686 55,19 C72.8913322,16.5517124 88.5579989,18.2183791 102,24 C119.333333,37.3333333 126,52 122,68 Z" id="Path-151" fill="#0B284C"></path>
                    <path d="M31,46 C27.6666667,35.9381972 26,27.6048639 26,21 C26,20.3333333 29.3333333,19.6666667 36,19 C36,17 33.6666667,14.3333333 29,11 C28.0765837,10.3404169 31.4099171,11.0070836 39,13 C39.6666667,11.6666667 38.6666667,9 36,5 C35.6211349,4.43170241 38.3405544,4.00089456 42,6 C42.9321694,6.50923146 44.2655027,7.84256479 46,10 C54.0608765,3.33333333 62.3942098,-2.94236857e-13 71,-2.94875235e-13 C88,-2.94875235e-13 88.8049687,3.8204403 98,8 C99.2033124,8.5469602 97.5366458,9.21362687 93,10 C97.1316363,16.798303 100.131636,21.1316363 102,23 C104,25 89.8886388,18.3329583 91,20 C93,23 96,27.7320417 96,31 C96,31.6666667 94,31 90,29 C90.1175994,32.5693422 90.1175994,35.2360089 90,37 C89.8824006,38.7639911 89.5490673,41.0973245 89,44 L31,46 Z" id="Path-149" fill="#2C8AFF"></path>
                    <path d="M36,86 C35.3674617,72.871437 34.0341284,60.2047703 32,48 C30,36 33,30 40,26 C43.8925106,23.7757082 50.2603178,27.2922223 60.195875,27 C67.2603178,26.7922223 70.4947397,24.7394922 77,26 C83.3968022,27.2394922 87.1667816,32.944866 88,36 C90,43.3333333 88.3333333,60 83,86 L36,86 Z" id="Path-146" fill="#F6F8FB"></path>
                    <path d="M68.9961052,30.1247566 L81.5029211,30.9064326 C82.3444256,30.9590266 83,31.6568536 83,32.5 L83,32.5 C83,33.3284271 82.3284271,34 81.5,34 L69,34 C67.8954305,34 67,33.1045695 67,32 L67,32 C67,30.9623108 67.8412133,30.1210976 68.8789024,30.1210976 C68.9179986,30.1210976 68.9570852,30.1223178 68.9961052,30.1247566 Z" id="Rectangle" fill="#2C8AFF"></path>
                    <path d="M38.9961052,30.1247566 L51.5029211,30.9064326 C52.3444256,30.9590266 53,31.6568536 53,32.5 L53,32.5 C53,33.3284271 52.3284271,34 51.5,34 L39,34 C37.8954305,34 37,33.1045695 37,32 L37,32 C37,30.9623108 37.8412133,30.1210976 38.8789024,30.1210976 C38.9179986,30.1210976 38.9570852,30.1223178 38.9961052,30.1247566 Z" id="Rectangle" fill="#2C8AFF" transform="translate(45.000000, 32.060549) scale(-1, 1) translate(-45.000000, -32.060549) "></path>
                    <path d="M55,46 C56,44.5 51.2989899,36 45.5,36 C39.7010101,36 33.5020578,43.2530867 36,47 C38,50 54,47.5 55,46 Z" id="Oval" fill="#E1E7EF"></path>
                    <path d="M85,46 C86,44.5 81.2989899,36 75.5,36 C69.7010101,36 63.5020578,43.2530867 66,47 C68,50 84,47.5 85,46 Z" id="Oval" fill="#E1E7EF"></path>
                    <circle id="Oval" fill="#FFFFFF" cx="45" cy="47" r="5"></circle>
                    <circle id="Oval" fill="#FFFFFF" cx="75" cy="47" r="5"></circle>
                    <circle id="Oval" stroke="#2C8AFF" fill="#2C8AFF" cx="45" cy="48" r="1"></circle>
                    <circle id="Oval" stroke="#2C8AFF" fill="#2C8AFF" cx="75" cy="48" r="1"></circle>
                    <path d="M41.5,47 C43.0555556,46.3333333 44.2222222,46 45,46 C45.7777778,46 46.9444444,46.3333333 48.5,47" id="Line-2" stroke="#2C8AFF" stroke-linecap="round"></path>
                    <path d="M71.5,47 C73.0555556,46.3333333 74.2222222,46 75,46 C75.7777778,46 76.9444444,46.3333333 78.5,47" id="Line-2" stroke="#2C8AFF" stroke-linecap="round"></path>
                    <path d="M64,57 C64,55.4435621 62.5,53 60,53 C57.5,53 56,55.408481 56,57 C56,57.908481 58,58 60,58 C62,58 64,57.9435621 64,57 Z" id="Path-46" fill="#E1E7EF"></path>
                    <path d="M71,65 C69.3981711,63.4360311 67.3981711,62.4360311 65,62 C63.7315045,61.7693644 62.0648378,62.1026978 60,63 C57.7633608,62.0342349 56.0966942,61.7009016 55,62 C52.4300275,62.7009016 50.4300275,64.0342349 49,66 C52.9272352,68.1548226 56.5939019,69.1548226 60,69 C63.9272352,68.8214893 67.5939019,67.488156 71,65 Z" id="Path-87" fill="#E1E7EF"></path>
                    <path d="M47,23 C54.3333333,19.6666667 59.6666667,15.6666667 63,11 C63.9440113,9.67838415 59.5870094,18.556844 62,18 C66.0870094,17.056844 71,14 76,8 C76.793536,7.04775681 67.6979474,20.8809607 72,19 C78,16.3766559 88.2299913,20 86,20 C76,20 74.7359809,22.6104153 66.645073,24 C58.881691,25.3333333 52.3333333,25 47,23 Z" id="Path-148" fill="#196DD6"></path>
                    <path d="M90.9927575,43.2741417 L91.1471891,43.2741316 C92.8669412,43.2741367 94.3440129,44.4962766 94.6659959,46.185618 C95.2274873,49.1315826 95.307456,51.6401592 94.9059021,53.7113478 C94.5246401,55.6778718 94.259971,57.8866838 94.1118948,60.3377837 L94.1118715,60.3377823 C94.0122161,61.9873742 92.6453568,63.2741506 90.9927575,63.2741506 L90.9927575,63.2741506 C89.3358987,63.2741506 87.9927493,61.9310012 87.9927493,60.2741424 L87.9927493,46.2741409 C87.9927493,44.6172871 89.3358947,43.2741417 90.9927485,43.2741417 C90.9927515,43.2741417 90.9927545,43.2741417 90.9927575,43.2741417 Z" id="Rectangle" fill="#E1E7EF" transform="translate(91.574900, 53.274142) rotate(5.000000) translate(-91.574900, -53.274142) "></path>
                    <path d="M29.9927575,46.2741417 L30.1471891,46.2741316 C31.8669412,46.2741367 33.3440129,47.4962766 33.6659959,49.185618 C34.2274873,52.1315826 34.307456,54.6401592 33.9059021,56.7113478 C33.5246401,58.6778718 33.259971,60.8866838 33.1118948,63.3377837 L33.1118715,63.3377823 C33.0122161,64.9873742 31.6453568,66.2741506 29.9927575,66.2741506 L29.9927575,66.2741506 C28.3358987,66.2741506 26.9927493,64.9310012 26.9927493,63.2741424 L26.9927493,49.2741409 C26.9927493,47.6172871 28.3358947,46.2741417 29.9927485,46.2741417 C29.9927515,46.2741417 29.9927545,46.2741417 29.9927575,46.2741417 Z" id="Rectangle" fill="#E1E7EF" transform="translate(30.574900, 56.274142) scale(-1, 1) rotate(5.000000) translate(-30.574900, -56.274142) "></path>
                    <path d="M78,96 C80.6480033,101.788146 79.9813367,105.788146 76,108 C68.472005,112.182219 57.8289123,112.483241 51,110 C44.5526082,107.655494 43.2192749,102.988827 47,96 L78,96 Z" id="Path-152" fill="#E1E7EF"></path>
                    <path d="M6,57 C3.4814551,57 0.783372217,60.3173277 1,64 C1.28337222,68.8173277 4.14561922,74 7,74 C9.64561922,74 12.2605071,68.42862 12,64 C11.7605071,59.92862 10,57 6,57 Z" id="Path-150" fill="#0B284C"></path>
                    <path d="M33,56 C30,63 28.4038608,68.8846838 31,81 C32.9038608,89.8846838 36.0186593,94.0139944 40,97 C44,100 62,103 71,101 C77.5355032,99.547666 82,96 84,93 C88,87 89,82 89,78 C89,70.9607833 93.0741485,56.8148297 89,56 C84,55 80,59 78,63 C77.0000034,64.9999933 75,67 74,77 C73.3733973,83.2660272 68.7577358,81.7577358 67,80 C64,77 67.8448707,71 59,71 C49.7436685,71 57,82 51,81 C46.9147925,80.3191321 46.9147925,73 45,67 C43.9059634,63.5718378 40.3337579,64.6193812 37,62 C33.3337579,59.1193812 34.6576677,52.1321087 33,56 Z" id="Path-147" fill="#2C8AFF"></path>
                </g>
            </g>
        </g>
    </g>
</svg>