<?xml version="1.0" encoding="UTF-8"?>
<svg width="70px" height="70px" viewBox="0 0 70 70" version="1.1" xmlns="http://www.w3.org/2000/svg" xmlns:xlink="http://www.w3.org/1999/xlink">
    <!-- Generator: Sketch 51.3 (57544) - http://www.bohemiancoding.com/sketch -->
    <title>UI/Icon/Storage</title>
    <desc>Created with Sketch.</desc>
    <defs>
        <linearGradient x1="45.8509555%" y1="-2.86756152%" x2="45.8509555%" y2="136.344535%" id="linearGradient-1">
            <stop stop-color="#46B2FF" offset="0%"></stop>
            <stop stop-color="#227AFE" offset="100%"></stop>
        </linearGradient>
        <linearGradient x1="50%" y1="-16.7217076%" x2="53.0076408%" y2="112.348023%" id="linearGradient-2">
            <stop stop-color="#007FDA" offset="0%"></stop>
            <stop stop-color="#004AB9" offset="100%"></stop>
        </linearGradient>
    </defs>
    <g id="1440" stroke="none" stroke-width="1" fill="none" fill-rule="evenodd">
        <g id="1440-(1)" transform="translate(-1032.000000, -1235.000000)">
            <g id="Group-84" transform="translate(208.000000, 1034.000000)">
                <g id="Group-116" transform="translate(0.000000, 181.000000)">
                    <g id="UI/Icon/Storage" transform="translate(824.000000, 20.000000)">
                        <g id="Group-53">
                            <g id="Group-36">
                                <g id="Group-93">
                                    <rect id="Rectangle-4" stroke="#E1E7EF" stroke-width="0.7" fill="#F6F8FB" x="0.35" y="0.35" width="69.3" height="69.3" rx="16.8"></rect>
                                    <g id="Group-44" transform="translate(10.500000, 10.500000)">
                                        <g id="Group-42">
                                            <circle id="Oval-7" fill="#FFFFFF" cx="24.5" cy="24.5" r="21.7"></circle>
                                            <circle id="Oval-7" stroke="url(#linearGradient-1)" stroke-width="3.5" cx="24.5" cy="24.5" r="23.1"></circle>
                                            <circle id="Oval-9" stroke="url(#linearGradient-2)" stroke-width="0.5" cx="24.5" cy="24.5" r="21.25"></circle>
                                            <circle id="Oval-9" stroke="url(#linearGradient-2)" stroke-width="0.5" cx="24.5" cy="24.5" r="24.75"></circle>
                                        </g>
                                        <g id="Group-43" transform="translate(9.100000, 14.700000)">
                                            <path d="M27.9444194,10.5419966 C30.3460623,10.8574992 32.2,12.9122444 32.2,15.4 C32.2,18.1061953 30.0061953,20.3 27.3,20.3 L11.2,20.3 C8.49380473,20.3 6.3,18.1061953 6.3,15.4 C6.3,12.9099843 8.15730772,10.8537661 10.5621275,10.5411411 C11.0069987,6.9591968 13.7869647,4.2 17.15,4.2 C19.7609083,4.2 22.0203852,5.8630414 23.108606,8.28300211 C23.6074272,7.91462709 24.2061556,7.7 24.85,7.7 C26.3872686,7.7 27.667339,8.9235514 27.9444194,10.5419966 Z" id="Combined-Shape" fill="#E1E7EF"></path>
                                            <path d="M25.8192025,8.05845208 L24.9178265,8.00165003 L24.8392235,7.10191296 C24.7135939,5.66388102 23.5042891,4.55 22.05,4.55 C21.5052101,4.55 20.9859908,4.70480725 20.538757,4.99229248 L19.6018818,5.59452286 L19.0558452,4.6238218 C17.823774,2.43354232 15.5085497,1.05 12.95,1.05 C9.42170008,1.05 6.45644089,3.67578387 6.00821434,7.14215511 L5.89604623,8.00960995 L5.02260172,8.05602429 C2.80102716,8.17407748 1.05,10.014901 1.05,12.25 C1.05,14.5695959 2.93040405,16.45 5.25,16.45 L25.55,16.45 C27.8695959,16.45 29.75,14.5695959 29.75,12.25 C29.75,10.0304338 28.0224077,8.19729154 25.8192025,8.05845208 Z" id="Combined-Shape" stroke="#474D54" stroke-width="2.1"></path>
                                        </g>
                                    </g>
                                </g>
                            </g>
                        </g>
                    </g>
                </g>
            </g>
        </g>
    </g>
</svg>